<svg width="39" height="27" viewBox="0 0 39 27" xmlns="http://www.w3.org/2000/svg">
<path d="M5.95596 26.25H21.3528C24.9524 26.25 26.9337 24.2838 26.9337 20.8354V6.14947C26.9337 2.71619 25.028 0.75 21.4435 0.75H5.95596C2.44706 0.75 0.375 2.71619 0.375 6.16459V21.0774C0.375 24.5258 2.37144 26.25 5.95596 26.25ZM29.399 18.9751L34.0725 22.9831C34.859 23.6335 35.6001 24.0721 36.3714 24.0721C37.6873 24.0721 38.625 23.1646 38.625 21.7126V5.46886C38.625 4.03203 37.6873 3.10943 36.3714 3.10943C35.6001 3.10943 34.859 3.54804 34.0725 4.21352L29.399 8.22153V18.9751Z"/>
</svg>
