<?xml version="1.0" standalone="no"?>
<!DOCTYPE svg PUBLIC "-//W3C//DTD SVG 20010904//EN"
 "http://www.w3.org/TR/2001/REC-SVG-20010904/DTD/svg10.dtd">
<svg version="1.0" xmlns="http://www.w3.org/2000/svg"
 width="450pt" height="90pt" 
 preserveAspectRatio="xMidYMid meet">
<g transform="translate(0.000000,382.000000) scale(0.100000,-0.100000)"
fill="#000000" stroke="none">
<path d="M514 3706 c-34 -16 -79 -26 -135 -30 -205 -16 -288 -48 -328 -129
-18 -36 -22 -56 -16 -84 12 -64 81 -114 140 -99 22 6 24 9 18 54 -5 44 -3 52
27 86 30 34 126 93 136 83 2 -2 -5 -16 -16 -30 -44 -56 -84 -160 -85 -218 0
-66 18 -93 73 -109 38 -10 88 5 126 38 34 30 -23 -64 -72 -120 -34 -37 -51
-48 -73 -48 -39 0 -50 27 -19 50 19 14 21 20 11 38 -22 42 -95 37 -136 -9 -26
-27 -31 -99 -10 -138 32 -64 147 -90 230 -52 78 35 124 107 205 322 63 166 73
183 141 255 63 65 82 111 56 133 -34 28 -93 -29 -180 -175 -42 -70 -117 -154
-138 -154 -53 1 -59 80 -13 174 32 66 51 81 112 90 73 11 112 31 112 59 0 14
-7 28 -16 31 -33 13 -101 5 -150 -18z m99 -23 c-7 -2 -19 -2 -25 0 -7 3 -2 5
12 5 14 0 19 -2 13 -5z"/>
<path d="M2712 3709 c-51 -26 -72 -62 -72 -124 0 -38 5 -52 30 -76 23 -24 37
-30 62 -27 29 3 33 6 30 30 -6 60 51 108 131 108 26 0 47 -3 47 -6 0 -4 -19
-30 -43 -58 -23 -28 -72 -89 -109 -136 -95 -124 -138 -160 -189 -160 -33 0
-47 6 -69 30 -34 36 -52 32 -75 -17 -21 -44 -15 -115 11 -145 25 -27 75 -48
118 -48 102 0 171 73 315 338 40 72 74 132 76 132 2 0 -10 -37 -26 -82 -85
-237 -104 -274 -144 -284 -56 -14 -9 -104 56 -104 80 0 142 65 245 256 31 57
57 104 59 104 1 0 -13 -36 -31 -79 -36 -83 -64 -191 -64 -251 0 -75 60 -144
126 -144 28 0 43 7 65 32 31 35 40 92 15 92 -26 0 -65 41 -72 76 -14 76 40
238 117 351 43 63 138 163 156 163 7 0 13 6 13 14 0 35 -88 35 -157 0 -83 -41
-169 -142 -301 -354 -12 -19 -22 -28 -22 -20 0 24 30 201 41 243 10 36 11 37
57 37 54 0 107 25 135 62 16 21 17 29 7 48 -11 20 -18 22 -74 18 -42 -2 -80
-12 -112 -29 l-49 -25 -55 25 c-78 36 -188 41 -248 10z m432 -48 c6 -10 -16
-21 -41 -21 -13 0 -13 3 -3 15 14 17 36 20 44 6z"/>
<path d="M3756 3570 c-38 -41 -53 -50 -81 -50 -34 0 -70 -24 -60 -41 4 -5 17
-9 31 -9 13 0 24 -2 24 -4 0 -19 -86 -158 -115 -186 -74 -72 -61 14 18 114 29
37 30 39 12 52 -41 30 -61 18 -126 -76 -34 -50 -71 -97 -83 -106 -19 -13 -21
-13 -24 7 -2 13 14 48 42 89 25 37 46 72 46 77 0 11 -32 23 -61 23 -19 0 -87
-100 -118 -173 -26 -61 -27 -118 -3 -140 30 -27 76 -21 111 13 l30 30 13 -27
c10 -22 21 -29 49 -31 29 -2 42 3 67 27 35 36 42 38 42 13 0 -27 20 -42 59
-42 27 0 42 8 72 41 35 38 38 39 44 19 10 -32 63 -60 116 -60 35 0 56 7 87 30
23 17 42 26 42 20 0 -19 40 -50 64 -50 15 0 35 13 52 33 l29 32 15 -30 c11
-23 23 -31 48 -33 28 -3 40 3 71 35 31 33 111 168 111 187 0 19 -32 1 -50 -29
-21 -35 -65 -75 -81 -75 -16 0 -10 24 25 95 41 86 117 189 157 212 36 21 34
44 -4 57 -41 15 -72 -6 -135 -89 -47 -63 -56 -70 -84 -67 -68 6 -100 -16 -203
-144 -52 -65 -122 -93 -153 -62 -19 19 -14 29 12 22 36 -9 92 13 121 47 35 42
35 102 0 125 -61 40 -162 -10 -221 -108 -35 -58 -78 -97 -91 -84 -10 10 15 74
58 148 38 64 41 67 82 70 35 2 43 7 45 26 3 17 -2 22 -20 22 -21 0 -20 3 16
33 36 31 38 34 22 50 -32 32 -69 21 -120 -33z m184 -192 c0 -20 -32 -48 -56
-48 -32 0 -38 16 -14 40 22 22 70 28 70 8z m254 -10 c-8 -29 -35 -66 -68 -97
-21 -20 -26 -22 -31 -8 -8 20 29 91 57 111 33 23 51 21 42 -6z"/>
<path d="M1790 3481 c0 -10 -18 -55 -40 -99 -40 -79 -92 -138 -111 -126 -15 9
0 44 49 113 43 61 44 65 27 77 -23 17 -57 18 -72 3 -8 -8 -17 -8 -31 0 -74 39
-187 -49 -227 -177 -36 -114 37 -188 110 -112 l28 30 19 -30 c14 -25 24 -30
54 -30 31 0 44 7 77 43 21 23 62 79 90 125 33 55 56 82 69 82 10 0 18 -2 18
-5 0 -3 -16 -37 -35 -75 -54 -106 -43 -170 27 -170 22 0 41 11 68 38 l38 37
29 -35 c29 -33 33 -35 96 -35 62 0 68 2 102 35 58 56 126 190 97 190 -6 0 -24
-18 -42 -39 -53 -68 -127 -100 -158 -69 -20 20 -14 28 16 22 64 -13 142 52
142 118 0 31 -41 68 -77 68 -60 0 -139 -54 -173 -120 -21 -40 -69 -95 -76 -87
-3 3 2 30 12 60 14 47 15 60 4 86 -7 17 -16 31 -20 31 -4 0 -24 16 -44 35 -41
39 -66 45 -66 16z m-216 -142 c-48 -88 -112 -116 -85 -38 16 45 59 89 88 89
l24 0 -27 -51z m581 41 c3 -5 -3 -18 -15 -30 -37 -37 -89 -18 -54 21 18 20 59
26 69 9z"/>
<path d="M713 3440 c-34 -21 -53 -48 -53 -77 0 -11 -8 -37 -19 -59 -34 -73
-34 -143 2 -166 38 -24 111 2 152 56 14 19 35 36 45 39 17 4 20 0 20 -32 0
-74 75 -97 132 -41 35 35 38 36 38 12 0 -27 20 -42 58 -42 26 0 42 8 66 34 32
33 106 163 106 185 0 23 -21 10 -46 -29 -28 -43 -69 -74 -84 -65 -14 8 12 67
56 128 34 48 35 51 18 64 -38 28 -61 16 -107 -55 -48 -75 -104 -142 -118 -142
-25 0 7 77 60 144 35 44 31 57 -20 59 -28 2 -37 -4 -65 -43 -18 -25 -45 -58
-59 -75 l-25 -30 6 52 c6 46 4 54 -19 77 -33 33 -97 35 -144 6z m93 -45 c8
-19 -1 -54 -19 -79 -11 -14 -18 -16 -32 -9 -12 7 -14 13 -6 17 17 11 13 43 -6
51 -17 6 -17 7 1 21 26 18 55 18 62 -1z m-91 -145 c3 -5 2 -10 -4 -10 -5 0
-13 5 -16 10 -3 6 -2 10 4 10 5 0 13 -4 16 -10z"/>
</g>
</svg>
