<svg width="16px" height="16px" viewBox="0 0 16 16" version="1.1" xmlns="http://www.w3.org/2000/svg" xmlns:xlink="http://www.w3.org/1999/xlink">
    <g stroke="none" stroke-width="1" fill-rule="evenodd">
        <g fill-rule="nonzero">
            <path d="M8,0 C12.418278,-8.11624501e-16 16,3.581722 16,8 C16,12.418278 12.418278,16 8,16 C3.581722,16 5.41083001e-16,12.418278 0,8 C-5.41083001e-16,3.581722 3.581722,8.11624501e-16 8,0 Z M8.00062,4 L7.80035966,4.00489531 C5.68396847,4.10892112 4,5.85780461 4,8 C4,10.209139 5.790861,12 8,12 L8,12 L8.20026034,11.9951047 C10.3166515,11.8910789 12.00062,10.1421954 12.00062,8 C12.00062,5.790861 10.209759,4 8.00062,4 L8.00062,4 Z"></path>
        </g>
    </g>
</svg>