<svg width="14" height="13" viewBox="0 0 14 13" xmlns="http://www.w3.org/2000/svg">
<path d="M1.95361 5.80762H5.47656C6.12402 5.80762 6.49854 5.42676 6.49854 4.7793V1.2627C6.49854 0.932617 6.25098 0.672363 5.91455 0.672363C5.57812 0.672363 5.33691 0.92627 5.33691 1.2627V1.7959L5.47021 4.01123L3.79443 2.25293L1.8457 0.285156C1.73779 0.170898 1.5918 0.11377 1.43945 0.11377C1.07764 0.11377 0.811035 0.35498 0.811035 0.710449C0.811035 0.875488 0.874512 1.03418 0.98877 1.14844L2.94385 3.10352L4.70215 4.77295L2.48682 4.646H1.95361C1.61719 4.646 1.35693 4.88086 1.35693 5.22363C1.35693 5.56006 1.61084 5.80762 1.95361 5.80762ZM8.04102 12.2505C8.37744 12.2505 8.61865 12.0029 8.61865 11.6602V11.0571L8.48535 8.84814L10.1611 10.6064L12.1543 12.6123C12.2622 12.7266 12.4019 12.7837 12.5605 12.7837C12.916 12.7837 13.1826 12.5425 13.1826 12.187C13.1826 12.022 13.1255 11.8633 13.0112 11.749L11.0117 9.74951L9.24707 8.08008L11.4688 8.20703H12.0718C12.4082 8.20703 12.6685 7.97217 12.6685 7.63574C12.6685 7.29297 12.4146 7.05176 12.0718 7.05176H8.479C7.83154 7.05176 7.45703 7.42627 7.45703 8.07373V11.6602C7.45703 11.9966 7.69824 12.2505 8.04102 12.2505Z" />
</svg>
