<svg width="24" height="24" viewBox="0 0 24 24" fill="none" xmlns="http://www.w3.org/2000/svg">
<path d="M6.81 6.92077V17.0792C6.81 18.3575 7.44575 19 8.71048 19H15.2844C16.5491 19 17.1781 18.3575 17.1781 17.0792V6.92077C17.1781 5.64251 16.5491 5 15.2844 5H8.71048C7.44575 5 6.81 5.64251 6.81 6.92077ZM11.9974 10.1198C11.1182 10.1198 10.4148 9.41643 10.4148 8.5372C10.4148 7.65121 11.1182 6.95459 11.9974 6.96135C12.8699 6.96812 13.5733 7.65797 13.5801 8.5372C13.5936 9.41643 12.8699 10.1198 11.9974 10.1198ZM11.9974 9.34203C12.4438 9.34203 12.8023 8.97681 12.8023 8.5372C12.8023 8.09082 12.4371 7.73237 11.9974 7.73237C11.5443 7.73237 11.1926 8.07053 11.1926 8.5372C11.1926 8.97681 11.5443 9.34203 11.9974 9.34203ZM11.9974 17.0386C10.4216 17.0386 9.1501 15.7807 9.1501 14.1981C9.1501 12.6087 10.4216 11.344 11.9974 11.3507C13.5733 11.3575 14.8448 12.6087 14.8448 14.1981C14.8448 15.7807 13.5733 17.0386 11.9974 17.0386ZM11.9974 15.4019C12.6738 15.4019 13.2013 14.8609 13.2013 14.1981C13.2013 13.5082 12.6738 12.9807 11.9974 12.9807C11.3143 12.9807 10.7936 13.5082 10.7936 14.1981C10.7936 14.8609 11.3346 15.4019 11.9974 15.4019Z" fill="black"/>
</svg>
