<svg width="24" height="24" viewBox="0 0 24 24" xmlns="http://www.w3.org/2000/svg">
<path fill-rule="evenodd" clip-rule="evenodd" d="M17.5147 4.56271L16.7487 3.91992L4.75 18.2194L5.51605 18.8622L17.5147 4.56271ZM5.55556 7.14993H12.733L4.90189 16.4827C4.8064 16.3515 4.75 16.1911 4.75 16.0191V7.94743C4.75 7.51129 5.1125 7.14993 5.55556 7.14993ZM15.2222 16.8166H8.53793L16.0259 7.89281C16.0271 7.91087 16.0278 7.92908 16.0278 7.94743V10.7938L17.8725 8.96998C18.38 8.4704 19.25 8.82724 19.25 9.53299V14.4256C19.25 15.1313 18.38 15.4882 17.8725 14.9886L16.0278 13.1727V16.0191C16.0278 16.4552 15.6653 16.8166 15.2222 16.8166Z" />
</svg>
