<svg width="16" height="16" viewBox="0 0 16 16" xmlns="http://www.w3.org/2000/svg">
<path d="M12.1278 8.54434C12.15 8.36656 12.1667 8.18878 12.1667 7.99989C12.1667 7.811 12.15 7.63323 12.1278 7.45545L13.3 6.53878C13.4056 6.45545 13.4334 6.30545 13.3667 6.18322L12.2556 4.261C12.1889 4.13878 12.0389 4.09434 11.9167 4.13878L10.5334 4.69434C10.2445 4.47211 9.93337 4.28878 9.59448 4.14989L9.38337 2.67767C9.3667 2.54434 9.25003 2.44434 9.11114 2.44434H6.88892C6.75003 2.44434 6.63337 2.54434 6.6167 2.67767L6.40559 4.14989C6.0667 4.28878 5.75559 4.47767 5.4667 4.69434L4.08337 4.13878C3.95559 4.08878 3.81114 4.13878 3.74448 4.261L2.63337 6.18322C2.56114 6.30545 2.59448 6.45545 2.70003 6.53878L3.87226 7.45545C3.85003 7.63323 3.83337 7.81656 3.83337 7.99989C3.83337 8.18323 3.85003 8.36656 3.87226 8.54434L2.70003 9.461C2.59448 9.54434 2.5667 9.69434 2.63337 9.81656L3.74448 11.7388C3.81114 11.861 3.96114 11.9054 4.08337 11.861L5.4667 11.3054C5.75559 11.5277 6.0667 11.711 6.40559 11.8499L6.6167 13.3221C6.63337 13.4554 6.75003 13.5554 6.88892 13.5554H9.11114C9.25003 13.5554 9.3667 13.4554 9.38337 13.3221L9.59448 11.8499C9.93337 11.711 10.2445 11.5221 10.5334 11.3054L11.9167 11.861C12.0445 11.911 12.1889 11.861 12.2556 11.7388L13.3667 9.81656C13.4334 9.69434 13.4056 9.54434 13.3 9.461L12.1278 8.54434ZM8.00003 9.94434C6.92781 9.94434 6.05559 9.07211 6.05559 7.99989C6.05559 6.92767 6.92781 6.05545 8.00003 6.05545C9.07226 6.05545 9.94448 6.92767 9.94448 7.99989C9.94448 9.07211 9.07226 9.94434 8.00003 9.94434Z" />
</svg>
