<svg width="16" height="6" viewBox="0 0 16 6" xmlns="http://www.w3.org/2000/svg">
<path d="M3.31719 5.47033L4.5794 4.44645C4.88234 4.20175 5.05904 3.82826 5.05904 3.43546V1.76119C6.96499 1.13013 9.0287 1.12369 10.941 1.76119V3.4419C10.941 3.8347 11.1177 4.20819 11.4206 4.45289L12.6765 5.47033C13.1814 5.87601 13.9008 5.83738 14.3552 5.37374L15.1252 4.58812C15.6301 4.07296 15.6301 3.21651 15.0936 2.73355C11.0482 -0.911184 4.95176 -0.911184 0.906364 2.73355C0.369924 3.21651 0.369924 4.07296 0.874809 4.58812L1.64476 5.37374C2.09284 5.83738 2.81231 5.87601 3.31719 5.47033Z" />
</svg>
