<svg width="24" height="24" viewBox="0 0 24 24" fill="none" xmlns="http://www.w3.org/2000/svg">
<path fill-rule="evenodd" clip-rule="evenodd" d="M7.08246 9.11465L6.78223 9.39589C6.74414 9.43398 6.68701 9.45302 6.62354 9.45302H4.80811C3.94482 9.45302 3.48145 9.9291 3.48145 10.8432V13.2045C3.48145 14.1249 3.94482 14.5946 4.80811 14.5946H6.62354C6.68701 14.5946 6.74414 14.6137 6.78223 14.6518L9.49268 17.2162C9.77832 17.4955 10.0259 17.6161 10.3242 17.6161C10.7432 17.6161 11.0415 17.3178 11.0415 16.9052V11.8868L7.08246 9.11465ZM13.438 13.5648C13.4056 13.6314 13.3711 13.6961 13.3348 13.7587C13.2942 13.8284 13.2513 13.8956 13.2061 13.9599C13.0394 14.1931 13.0429 14.4556 13.2207 14.6409C13.2461 14.6673 13.2751 14.6922 13.3076 14.7152C13.5171 14.8612 13.8154 14.8168 13.9868 14.5692C14.0866 14.4384 14.1782 14.2948 14.2607 14.1409L13.438 13.5648ZM14.7674 12.0575L13.7222 11.3257C13.6349 10.8479 13.4575 10.4092 13.2061 10.0624C13.1815 10.0299 13.1605 9.99644 13.1432 9.96251C13.0223 9.72498 13.0799 9.46254 13.3076 9.30703C13.3338 9.28798 13.3614 9.27211 13.3899 9.25941C13.5897 9.17045 13.8369 9.23641 13.9868 9.45302C14.4756 10.1005 14.7676 11.0399 14.7676 12.0111C14.7676 12.0266 14.7675 12.0421 14.7674 12.0575ZM15.8318 15.241C15.8264 15.2504 15.821 15.2599 15.8156 15.2693C15.7394 15.4023 15.6586 15.5309 15.5737 15.6547C15.4182 15.8824 15.4231 16.1393 15.5841 16.3063C15.6071 16.3301 15.6332 16.3521 15.6626 16.372C15.8975 16.5307 16.1895 16.4735 16.3608 16.2323C16.4594 16.0968 16.553 15.9551 16.6414 15.8079L15.8318 15.241ZM17.4153 13.9116L16.5408 13.2993C16.6223 12.8811 16.6655 12.4488 16.6655 12.0111C16.6655 11.9266 16.664 11.8423 16.6609 11.7581C16.6144 10.4961 16.2224 9.28402 15.5737 8.36757C15.5507 8.33504 15.5312 8.30192 15.5151 8.26854C15.4022 8.03492 15.4571 7.78914 15.6626 7.65029C15.692 7.63045 15.7222 7.61399 15.753 7.60083C15.9686 7.50876 16.2109 7.57888 16.3608 7.78994C17.1797 8.89443 17.6494 10.4433 17.6494 12.0111C17.6494 12.6592 17.5681 13.3018 17.4153 13.9116ZM18.2118 16.9075C18.1251 17.0519 18.0349 17.193 17.9414 17.3305C17.77 17.5907 17.8018 17.8891 18.043 18.0541C18.2588 18.2128 18.5698 18.1493 18.7412 17.8954C18.8367 17.7573 18.9289 17.6161 19.0177 17.4718L18.2118 16.9075ZM19.894 15.6473L19.058 15.0619C19.3712 14.1193 19.5474 13.0922 19.5474 12.0111C19.5474 9.97353 18.9253 8.14541 17.9414 6.69179C17.7821 6.44989 17.7983 6.17509 17.9951 6.005C18.01 5.9921 18.026 5.9798 18.043 5.96816C18.1231 5.90927 18.2163 5.8801 18.3106 5.88C18.4386 5.87988 18.5687 5.93335 18.6709 6.0388C18.6962 6.06496 18.7198 6.09432 18.7412 6.12685C18.8777 6.32839 19.0078 6.53637 19.131 6.75043C19.9937 8.24885 20.5186 10.0449 20.5186 12.0111C20.5186 13.3057 20.2961 14.5324 19.894 15.6473ZM11.0415 9.44867L8.57187 7.71941L9.49268 6.85683C9.81006 6.5458 10.0132 6.41884 10.3115 6.41884C10.7432 6.41884 11.0415 6.75527 11.0415 7.16787V9.44867Z" fill="black" fill-opacity="0.2"/>
<rect x="3.5" y="6" width="1" height="20.941" rx="0.5" transform="rotate(-55 3.5 6)" fill="black"/>
</svg>
