<svg width="24" height="24" viewBox="0 0 24 24" xmlns="http://www.w3.org/2000/svg">
<path fill-rule="evenodd" clip-rule="evenodd" d="M6 6C4.89543 6 4 6.89543 4 8V15C4 16.1046 4.89543 17 6 17H18C19.1046 17 20 16.1046 20 15V8C20 6.89543 19.1046 6 18 6H6ZM8.5 18C8.22386 18 8 18.2239 8 18.5C8 18.7761 8.22386 19 8.5 19H15.5C15.7761 19 16 18.7761 16 18.5C16 18.2239 15.7761 18 15.5 18H8.5ZM12.5303 8.46967L12 7.93934L11.4697 8.46967L8.96967 10.9697C8.67678 11.2626 8.67678 11.7374 8.96967 12.0303C9.26256 12.3232 9.73744 12.3232 10.0303 12.0303L11.25 10.8107V14C11.25 14.4142 11.5858 14.75 12 14.75C12.4142 14.75 12.75 14.4142 12.75 14V10.8107L13.9697 12.0303C14.2626 12.3232 14.7374 12.3232 15.0303 12.0303C15.3232 11.7374 15.3232 11.2626 15.0303 10.9697L12.5303 8.46967Z"/>
</svg>
