<svg width="24" height="24" viewBox="0 0 24 24" xmlns="http://www.w3.org/2000/svg">
<path d="M18.1917 12.8167C18.225 12.55 18.25 12.2834 18.25 12C18.25 11.7167 18.225 11.45 18.1917 11.1834L19.95 9.80835C20.1083 9.68335 20.15 9.45835 20.05 9.27502L18.3833 6.39169C18.2833 6.20835 18.0583 6.14169 17.875 6.20835L15.8 7.04169C15.3667 6.70835 14.9 6.43335 14.3917 6.22502L14.075 4.01669C14.05 3.81669 13.875 3.66669 13.6667 3.66669H10.3333C10.125 3.66669 9.94999 3.81669 9.92499 4.01669L9.60832 6.22502C9.09999 6.43335 8.63332 6.71669 8.19999 7.04169L6.12499 6.20835C5.93332 6.13335 5.71666 6.20835 5.61666 6.39169L3.94999 9.27502C3.84165 9.45835 3.89165 9.68335 4.04999 9.80835L5.80832 11.1834C5.77499 11.45 5.74999 11.725 5.74999 12C5.74999 12.275 5.77499 12.55 5.80832 12.8167L4.04999 14.1917C3.89165 14.3167 3.84999 14.5417 3.94999 14.725L5.61666 17.6084C5.71666 17.7917 5.94165 17.8584 6.12499 17.7917L8.19999 16.9584C8.63332 17.2917 9.09999 17.5667 9.60832 17.775L9.92499 19.9834C9.94999 20.1834 10.125 20.3334 10.3333 20.3334H13.6667C13.875 20.3334 14.05 20.1834 14.075 19.9834L14.3917 17.775C14.9 17.5667 15.3667 17.2834 15.8 16.9584L17.875 17.7917C18.0667 17.8667 18.2833 17.7917 18.3833 17.6084L20.05 14.725C20.15 14.5417 20.1083 14.3167 19.95 14.1917L18.1917 12.8167ZM12 14.9167C10.3917 14.9167 9.08332 13.6084 9.08332 12C9.08332 10.3917 10.3917 9.08335 12 9.08335C13.6083 9.08335 14.9167 10.3917 14.9167 12C14.9167 13.6084 13.6083 14.9167 12 14.9167Z"/>
</svg>
