<svg width="24" height="24" viewBox="0 0 24 24" xmlns="http://www.w3.org/2000/svg">
<path fill-rule="evenodd" clip-rule="evenodd" d="M14.1663 11.6459C14.1663 12.8108 13.1983 13.7511 11.9992 13.7511C10.8001 13.7511 9.83221 12.8108 9.83221 11.6459V7.43534C9.83221 6.27043 10.8001 5.33008 11.9992 5.33008C13.1983 5.33008 14.1663 6.27043 14.1663 7.43534V11.6459ZM15.5604 12.2424C15.6182 11.8985 15.9143 11.6459 16.2683 11.6459C16.7089 11.6459 17.0628 12.0248 16.9906 12.4459C16.6367 14.5511 14.903 16.2003 12.7216 16.502V17.9616C12.7216 18.3476 12.3965 18.6634 11.9992 18.6634C11.6019 18.6634 11.2769 18.3476 11.2769 17.9616V16.502C9.09542 16.2003 7.36181 14.5511 7.00786 12.4459C6.94285 12.0248 7.28958 11.6459 7.7302 11.6459C8.08414 11.6459 8.38031 11.8985 8.4381 12.2424C8.73426 13.8915 10.2151 15.1546 11.9992 15.1546C13.7834 15.1546 15.2642 13.8915 15.5604 12.2424Z" />
</svg>
