<svg width="12" height="12" viewBox="0 0 12 12" xmlns="http://www.w3.org/2000/svg">
<path d="M5.58418 8.3524L6.51253 7.42514C5.9077 7.33383 5.47869 7.13011 5.16923 6.82804C4.25495 5.91483 4.25495 4.62929 5.1622 3.72311L6.99077 1.89668C7.90506 0.983457 9.18506 0.983457 10.0993 1.89668C11.0207 2.82394 11.0136 4.09542 10.1064 5.00161L9.28352 5.83052C9.4734 6.28011 9.53671 6.82101 9.44527 7.27762L10.9644 5.76731C12.3429 4.39046 12.3499 2.43759 10.9574 1.04669C9.55781 -0.351236 7.60967 -0.344215 6.22418 1.03967L4.30418 2.95741C2.92572 4.33427 2.91868 6.28714 4.31121 7.68506C4.6066 7.97307 5.00748 8.2049 5.58418 8.3524ZM6.41407 3.65286L5.49274 4.58012C6.09055 4.67145 6.5266 4.87516 6.82902 5.17722C7.74329 6.09045 7.7433 7.37597 6.84308 8.28217L5.00748 10.1086C4.09318 11.0218 2.82021 11.0148 1.89891 10.1016C0.977586 9.18133 0.984615 7.90282 1.89186 7.00365L2.72175 6.17474C2.52484 5.72515 2.46154 5.18426 2.55297 4.72062L1.04088 6.23797C-0.344617 7.61481 -0.351648 9.56769 1.04792 10.9586C2.44044 12.3495 4.3956 12.3425 5.77407 10.9656L7.69406 9.04785C9.07252 7.66399 9.07957 5.71111 7.68703 4.32021C7.39868 4.03219 6.99077 3.80038 6.41407 3.65286Z" />
</svg>
