<svg width="24" height="24" viewBox="0 0 24 24" xmlns="http://www.w3.org/2000/svg">
<path d="M5 11.9967C5 8.16021 8.16691 5 12.0033 5C15.8398 5 19 8.16691 19 11.9967C19 15.8331 15.8398 18.9933 12.0033 18.9933C8.16691 18.9933 5 15.8331 5 11.9967ZM8.42803 11.9967C8.42803 12.4051 8.71593 12.7131 9.11095 12.7131H12.2377L13.637 12.6394L12.9072 13.2018L12.1038 13.945C11.9766 14.0588 11.8962 14.2329 11.8962 14.4204C11.8962 14.7886 12.1573 15.0564 12.5189 15.0564C12.7064 15.0564 12.8537 15.0029 12.9943 14.8623L15.351 12.5725C15.5385 12.3984 15.6188 12.2176 15.6188 11.9967C15.6188 11.7623 15.5318 11.5815 15.351 11.4142L12.9943 9.12434C12.8537 8.99044 12.7064 8.93018 12.5189 8.93018C12.1573 8.93018 11.8962 9.19799 11.8962 9.57293C11.8962 9.75371 11.9699 9.92779 12.1038 10.0416L12.8871 10.7781L13.6437 11.3539L12.2377 11.2736H9.11095C8.71593 11.2736 8.42803 11.5815 8.42803 11.9967Z"/>
</svg>
