<svg width="14" height="14" viewBox="0 0 14 14" xmlns="http://www.w3.org/2000/svg">
<path d="M8.36659 14C8.84773 14 9.18854 13.5857 9.4358 12.9442L13.8129 1.51026C13.9332 1.20286 14 0.928878 14 0.701671C14 0.267303 13.7327 0 13.2983 0C13.0711 0 12.7971 0.0668258 12.4897 0.187112L0.995704 4.59093C0.434368 4.80477 0 5.14558 0 5.63341C0 6.24821 0.46778 6.45537 1.10931 6.64916L4.7179 7.74511C5.14558 7.87876 5.38616 7.86539 5.67351 7.59809L13.0043 0.748449C13.0912 0.668258 13.1914 0.681623 13.2582 0.741766C13.3251 0.808592 13.3317 0.908831 13.2516 0.995704L6.42864 8.35322C6.16802 8.62721 6.14797 8.85441 6.27494 9.30215L7.33747 12.8305C7.53795 13.5055 7.74511 14 8.36659 14Z" />
</svg>
