<svg width="16" height="12" viewBox="0 0 16 12" fill="none" xmlns="http://www.w3.org/2000/svg">
<path d="M15.6668 2.149C15.4824 1.46016 14.9411 0.918835 14.2522 0.734443C13.0036 0.399902 8 0.399902 8 0.399902C8 0.399902 2.99638 0.399902 1.74909 0.734443C1.06026 0.918835 0.518933 1.46016 0.334541 2.149C0 3.39628 0 6.00017 0 6.00017C0 6.00017 0 8.60405 0.334541 9.85133C0.518933 10.5402 1.06026 11.0815 1.74909 11.2659C2.99638 11.6004 8 11.6004 8 11.6004C8 11.6004 13.0036 11.6004 14.2509 11.2659C14.9397 11.0815 15.4811 10.5402 15.6655 9.85133C16 8.60405 16 6.00017 16 6.00017C16 6.00017 16 3.39628 15.6668 2.149Z" fill="#FF0000"/>
<path d="M6.39978 8.40006L10.5578 6.00032L6.39978 3.60059V8.40006Z" fill="white"/>
</svg>
