<svg width="18" height="18" viewBox="0 0 18 18" xmlns="http://www.w3.org/2000/svg">
<path d="M8.9977 8.38196C9.77889 8.38196 10.4671 7.64871 10.4671 6.6921C10.4671 5.74032 9.77889 5.05078 8.9977 5.05078C8.22115 5.05078 7.53294 5.75976 7.53294 6.7018C7.53294 7.64871 8.22115 8.38196 8.9977 8.38196ZM4.8034 8.46936C5.48229 8.46936 6.08215 7.82838 6.08215 6.99801C6.08215 6.16765 5.48229 5.57038 4.8034 5.57038C4.12914 5.57038 3.52465 6.18222 3.52465 7.00773C3.52465 7.82838 4.12914 8.46936 4.8034 8.46936ZM13.192 8.46936C13.8708 8.46936 14.4754 7.82838 14.4754 7.00773C14.4754 6.18222 13.8708 5.57038 13.192 5.57038C12.5177 5.57038 11.9179 6.16765 11.9179 6.99801C11.9179 7.82838 12.5177 8.46936 13.192 8.46936ZM2.8039 11.9268H5.46834C5.09635 11.281 5.6032 10.1252 6.37975 9.51339C5.9752 9.24631 5.4637 9.05208 4.8034 9.05208C3.1573 9.05208 2.125 10.334 2.125 11.3781C2.125 11.7228 2.30635 11.9268 2.8039 11.9268ZM15.1961 11.9268C15.6937 11.9268 15.875 11.7228 15.875 11.3781C15.875 10.334 14.8428 9.05208 13.1966 9.05208C12.5364 9.05208 12.0249 9.24631 11.6157 9.51339C12.3968 10.1252 12.9037 11.281 12.5317 11.9268H15.1961ZM6.75175 11.9268H11.2483C11.8714 11.9268 12.076 11.7423 12.076 11.4072C12.076 10.4215 10.8948 9.06179 8.9977 9.06179C7.10514 9.06179 5.92405 10.4215 5.92405 11.4072C5.92405 11.7423 6.12864 11.9268 6.75175 11.9268Z" />
</svg>
