<svg width="11" height="12" viewBox="0 0 11 12" fill="none" xmlns="http://www.w3.org/2000/svg">
<path d="M0.294434 6.51416C0.294434 8.05029 0.740234 9.74756 1.49219 11.0581C1.62109 11.2837 1.86279 11.3589 2.09912 11.2515C2.33545 11.6167 2.75977 11.7617 3.23779 11.6221C3.83398 11.4448 4.10791 10.9238 3.93066 10.3276L3.2002 7.88916C3.02295 7.29297 2.51807 7.01904 1.9165 7.19629C1.64795 7.27686 1.44385 7.42188 1.32031 7.61523C1.2666 7.24463 1.23975 6.87402 1.23975 6.51416C1.23975 3.71582 2.94775 1.85205 5.50977 1.85205C8.07715 1.85205 9.79053 3.71582 9.79053 6.51416C9.79053 6.87939 9.7583 7.25 9.70996 7.62061C9.58105 7.42188 9.37695 7.27686 9.1084 7.19629C8.50684 7.01904 7.99658 7.29297 7.81934 7.88916L7.09424 10.3276C6.91162 10.9292 7.19092 11.4448 7.78711 11.6221C8.26514 11.7617 8.68408 11.6167 8.92578 11.2515C9.16211 11.3589 9.40381 11.2837 9.53271 11.0581C10.2793 9.74756 10.7305 8.05029 10.7305 6.51416C10.7305 3.14648 8.65186 0.912109 5.50977 0.912109C2.37305 0.912109 0.294434 3.14648 0.294434 6.51416Z" fill="black" />
</svg>
