<svg width="24" height="19" xmlns="http://www.w3.org/2000/svg"><g stroke="null"><path d="M17.508 11.918c1.605 0 3-1.348 3-3.104a3 3 0 0 0-3-3.019 3.02 3.02 0 0 0-3 3.033c0 1.742 1.388 3.09 3 3.09zm-4.718 6.5h9.421c1.185 0 1.605-.315 1.605-.933 0-1.811-2.423-4.31-6.315-4.31-3.885 0-6.308 2.499-6.308 4.31 0 .618.42.934 1.597.934zM11.567 4.334V.948c0-.515-.43-.848-.949-.744L5.867 1.215c-.626.134-.958.458-.958.992l.01 10.013c.039.42-.157.687-.528.763l-1.477.296C1.027 13.66.128 14.604.128 16.006c0 1.42 1.115 2.413 2.698 2.413 1.447 0 3.461-1.059 3.461-3.653V6.508c0-.448.069-.525.49-.61l4.242-.916c.333-.067.548-.324.548-.648z"/></g></svg>