<svg width="24" height="24" viewBox="0 0 24 24" xmlns="http://www.w3.org/2000/svg">
<path fill-rule="evenodd" clip-rule="evenodd" d="M9.36156 6.20195C8.20521 6.20195 7.26059 5.25733 7.26059 4.10098C7.26059 2.94463 8.20521 2 9.36156 2C10.5179 2 11.4625 2.94463 11.4625 4.10098V6.20195H9.36156ZM9.36156 12.5374C8.20521 12.5374 7.26059 13.4821 7.26059 14.6384V19.899C7.26059 21.0554 8.20521 22 9.36156 22C10.5179 22 11.4625 21.0554 11.4625 19.899V14.6384C11.4625 13.4821 10.5179 12.5374 9.36156 12.5374ZM4.10098 16.7394C5.25733 16.7394 6.20195 15.7948 6.20195 14.6384V12.5375H4.10098C2.94463 12.5375 2 13.4821 2 14.6384C2 15.7948 2.94463 16.7394 4.10098 16.7394ZM11.4625 9.36156C11.4625 8.20521 10.5179 7.26058 9.36156 7.26058H4.10098C2.94463 7.26058 2 8.20521 2 9.36156C2 10.5179 2.94463 11.4625 4.10098 11.4625H9.36156C10.5179 11.4625 11.4625 10.5179 11.4625 9.36156ZM17.798 9.36156C17.798 8.20521 18.7427 7.26058 19.899 7.26058C21.0554 7.26058 22 8.20521 22 9.36156C22 10.5179 21.0554 11.4625 19.899 11.4625H17.798V9.36156ZM14.6384 11.4625C15.7948 11.4625 16.7394 10.5179 16.7394 9.36156V4.10098C16.7394 2.94463 15.7948 2 14.6384 2C13.4821 2 12.5375 2.94463 12.5375 4.10098V9.36156C12.5375 10.5179 13.4821 11.4625 14.6384 11.4625ZM14.6384 17.798C15.7948 17.798 16.7394 18.7427 16.7394 19.899C16.7394 21.0554 15.7948 22 14.6384 22C13.4821 22 12.5375 21.0554 12.5375 19.899V17.798H14.6384ZM12.5375 14.6384C12.5375 15.7948 13.4821 16.7394 14.6384 16.7394H19.899C21.0554 16.7394 22 15.7948 22 14.6384C22 13.4821 21.0554 12.5375 19.899 12.5375H14.6384C13.4821 12.5375 12.5375 13.4821 12.5375 14.6384Z"/>
</svg>
