<svg width="15" height="13" viewBox="0 0 15 13" fill="none"
    xmlns="http://www.w3.org/2000/svg">
    <path d="M11.0711 8.83179C12.0709 8.83179 12.9398 7.98211 12.9398 6.87576C12.9398 5.78269 12.0709 4.97284 11.0711 4.97284C10.0714 4.97284 9.20252 5.80039 9.20252 6.88461C9.20252 7.98211 10.0668 8.83179 11.0711 8.83179ZM8.13274 12.9297H14.0002C14.7383 12.9297 14.9999 12.7306 14.9999 12.3411C14.9999 11.1994 13.491 9.62394 11.0665 9.62394C8.64661 9.62394 7.1377 11.1994 7.1377 12.3411C7.1377 12.7306 7.3993 12.9297 8.13274 12.9297Z" fill="black"/>
    <path d="M8.15548 2.95775V0.544074C8.15548 0.176923 7.84877 -0.061045 7.47934 0.013745L4.09168 0.734448C3.64557 0.829635 3.40857 1.0608 3.40857 1.44155L3.41554 8.58059C3.44342 8.87975 3.30401 9.07013 3.03913 9.12452L1.98659 9.33529C0.641285 9.60726 0 10.2804 0 11.2798C0 12.2929 0.794636 13 1.92386 13C2.95549 13 4.39141 12.2453 4.39141 10.3959V4.50794C4.39141 4.18838 4.4402 4.13399 4.73993 4.0728L7.76513 3.42009C8.00213 3.37249 8.15548 3.18892 8.15548 2.95775Z" fill="black"/>
</svg>
