<svg width="16" height="16" viewBox="0 0 16 16" fill="none" xmlns="http://www.w3.org/2000/svg">
<path d="M7.65348 9.96033L8.42711 9.18762C7.92308 9.11152 7.56557 8.94176 7.30769 8.69003C6.54579 7.92902 6.54579 6.85775 7.30183 6.10259L8.82564 4.58057C9.58755 3.81955 10.6542 3.81955 11.4161 4.58057C12.1839 5.35328 12.178 6.41285 11.422 7.16801L10.7363 7.85877C10.8945 8.23342 10.9473 8.68418 10.8711 9.06468L12.137 7.80609C13.2857 6.65872 13.2916 5.03132 12.1311 3.87224C10.9648 2.7073 9.34139 2.71315 8.18682 3.86639L6.58682 5.46451C5.4381 6.61189 5.43223 8.23928 6.59267 9.40422C6.83883 9.64422 7.1729 9.83741 7.65348 9.96033ZM8.34505 6.04405L7.57729 6.81677C8.07546 6.89287 8.43883 7.06263 8.69085 7.31435C9.45275 8.07537 9.45275 9.14664 8.70256 9.9018L7.1729 11.4238C6.41099 12.1848 5.35018 12.179 4.58242 11.418C3.81466 10.6511 3.82051 9.58568 4.57655 8.83638L5.26813 8.14561C5.10403 7.77096 5.05128 7.32022 5.12748 6.93385L3.8674 8.19831C2.71282 9.34568 2.70696 10.9731 3.87327 12.1322C5.0337 13.2912 6.663 13.2854 7.81173 12.138L9.41172 10.5399C10.5604 9.38665 10.5663 7.75926 9.40586 6.60018C9.16556 6.36016 8.82564 6.16698 8.34505 6.04405Z" fill="black"/>
</svg>
