<svg width="28" height="28" viewBox="0 0 28 28" fill="none" xmlns="http://www.w3.org/2000/svg">
<mask id="path-2-outside-1_489_31045" maskUnits="userSpaceOnUse" x="0" y="0" width="20" height="20" fill="black">
<rect fill="white" width="20" height="20"/>
<path fill-rule="evenodd" clip-rule="evenodd" d="M5 1C2.79086 1 1 2.79086 1 5V15C1 17.2091 2.79086 19 5 19H7.04484C7.01516 18.6706 7 18.3371 7 18C7 11.9249 11.9249 7 18 7C18.3371 7 18.6706 7.01516 19 7.04484V5C19 2.79086 17.2091 1 15 1H5Z"/>
</mask>
<path fill-rule="evenodd" clip-rule="evenodd" d="M5 1C2.79086 1 1 2.79086 1 5V15C1 17.2091 2.79086 19 5 19H7.04484C7.01516 18.6706 7 18.3371 7 18C7 11.9249 11.9249 7 18 7C18.3371 7 18.6706 7.01516 19 7.04484V5C19 2.79086 17.2091 1 15 1H5Z" fill="white"/>
<path d="M7.04484 19V19.5H7.59193L7.54283 18.9551L7.04484 19ZM19 7.04484L18.9551 7.54283L19.5 7.59193V7.04484H19ZM1.5 5C1.5 3.067 3.067 1.5 5 1.5V0.5C2.51472 0.5 0.5 2.51472 0.5 5H1.5ZM1.5 15V5H0.5V15H1.5ZM5 18.5C3.067 18.5 1.5 16.933 1.5 15H0.5C0.5 17.4853 2.51472 19.5 5 19.5V18.5ZM7.04484 18.5H5V19.5H7.04484V18.5ZM7.54283 18.9551C7.51449 18.6407 7.5 18.3221 7.5 18H6.5C6.5 18.3521 6.51584 18.7006 6.54686 19.0449L7.54283 18.9551ZM7.5 18C7.5 12.201 12.201 7.5 18 7.5V6.5C11.6487 6.5 6.5 11.6487 6.5 18H7.5ZM18 7.5C18.3221 7.5 18.6407 7.51449 18.9551 7.54283L19.0449 6.54686C18.7006 6.51584 18.3521 6.5 18 6.5V7.5ZM18.5 5V7.04484H19.5V5H18.5ZM15 1.5C16.933 1.5 18.5 3.067 18.5 5H19.5C19.5 2.51472 17.4853 0.5 15 0.5V1.5ZM5 1.5H15V0.5H5V1.5Z" fill="black" fill-opacity="0.1" mask="url(#path-2-outside-1_489_31045)"/>
<path fill-rule="evenodd" clip-rule="evenodd" d="M16.4688 6.75119C16.3133 6.16998 15.8565 5.71324 15.2753 5.55766C14.2218 5.27539 10 5.27539 10 5.27539C10 5.27539 5.77819 5.27539 4.7258 5.55766C4.14459 5.71324 3.68785 6.16998 3.53227 6.75119C3.25 7.80358 3.25 10.0006 3.25 10.0006C3.25 10.0006 3.25 12.1976 3.53227 13.25C3.68785 13.8312 4.14459 14.288 4.7258 14.4436C5.21551 14.5749 6.3915 14.6451 7.50904 14.6827C7.82124 13.6944 8.26922 12.7665 8.83109 11.9207L8.64978 12.0254V7.97583L11.131 9.40782C12.6559 8.18716 14.5128 7.36401 16.5446 7.09543C16.5219 6.97157 16.4968 6.85573 16.4688 6.75119Z" fill="#FF0000"/>
<path d="M9 17.9731C9 22.9164 13.0714 27 18 27C22.9286 27 27 22.9164 27 17.9731C27 13.0299 22.9286 9 18 9C13.0714 9 9 13.0299 9 17.9731Z" fill="#65D36E"/>
<path d="M21.3214 22.1644C19.2321 20.8748 16.5536 20.5524 13.4464 21.251C12.6964 21.3584 12.5893 20.2838 13.2321 20.1763C16.6607 19.3704 19.5536 19.7465 21.9107 21.1972C22.5 21.5733 21.9107 22.4868 21.3214 22.1644ZM22.2321 19.7465C19.8214 18.242 16.125 17.8122 13.2857 18.6719C12.375 18.9405 12.0536 17.5435 12.9107 17.3286C16.1786 16.3614 20.1964 16.845 22.9821 18.5644C23.7321 19.048 22.9821 20.2301 22.2321 19.7465ZM12.8571 15.9316C11.9464 16.2539 11.3571 14.6957 12.375 14.3196C15.5357 13.3525 20.8929 13.5136 24.2143 15.5017C25.125 15.9853 24.2679 17.4898 23.3036 16.9525C20.4107 15.233 15.5893 15.0719 12.8571 15.9316Z" fill="#111011"/>
</svg>
