<svg width="28" height="28" viewBox="0 0 28 28" fill="none" xmlns="http://www.w3.org/2000/svg">
<rect x="2" y="2" width="24" height="24" rx="4" fill="white"/>
<rect x="1.75" y="1.75" width="24.5" height="24.5" rx="4.25" stroke="black" stroke-opacity="0.1" stroke-width="0.5"/>
<path d="M22.6251 9.66793C22.4177 8.89298 21.8087 8.284 21.0337 8.07655C19.6291 7.7002 14 7.7002 14 7.7002C14 7.7002 8.37093 7.7002 6.96773 8.07655C6.19279 8.284 5.5838 8.89298 5.37636 9.66793C5 11.0711 5 14.0005 5 14.0005C5 14.0005 5 16.9299 5.37636 18.3331C5.5838 19.108 6.19279 19.717 6.96773 19.9244C8.37093 20.3008 14 20.3008 14 20.3008C14 20.3008 19.6291 20.3008 21.0323 19.9244C21.8072 19.717 22.4162 19.108 22.6236 18.3331C23 16.9299 23 14.0005 23 14.0005C23 14.0005 23 11.0711 22.6251 9.66793Z" fill="#FF0000"/>
<path d="M12.1997 16.7002L16.8775 14.0005L12.1997 11.3008V16.7002Z" fill="white"/>
</svg>
