<svg width="16" height="16" viewBox="0 0 16 16" xmlns="http://www.w3.org/2000/svg">
<path fill-rule="evenodd" clip-rule="evenodd" d="M8 0C3.58172 0 0 3.58172 0 8C0 12.4183 3.58172 16 8 16C12.4183 16 16 12.4183 16 8C16 3.58172 12.4183 0 8 0ZM11.0622 13.8333H4.9001C4.20984 13.8333 3.83333 13.4508 3.83333 12.8092V12.5747C3.83333 11.0884 5.23932 9.84072 6.09895 9.07787C6.24556 8.94777 6.37628 8.83177 6.48142 8.7311C6.71987 8.50282 6.85165 8.3054 6.85165 7.99075C6.85165 7.68227 6.71987 7.49101 6.48142 7.25657C6.36222 7.13937 6.20922 7.00419 6.03699 6.85202C5.17563 6.09097 3.83333 4.905 3.83333 3.41909V3.18465C3.83333 2.54301 4.20984 2.16667 4.9001 2.16667H11.0622C11.765 2.16667 12.1667 2.54301 12.1667 3.22166V3.41909C12.1667 4.91002 10.8153 6.09898 9.9506 6.85972C9.78121 7.00876 9.6305 7.14135 9.51229 7.25657C9.27384 7.49101 9.14206 7.68227 9.14206 7.99075C9.14206 8.3054 9.28011 8.50282 9.51229 8.7311C9.61896 8.83323 9.75222 8.95114 9.90187 9.08355C10.7646 9.8469 12.172 11.0921 12.1667 12.5747V12.7722C12.1604 13.4508 11.765 13.8333 11.0622 13.8333ZM10.7799 4.06073H5.22013C4.98167 4.06073 4.93147 4.25198 5.0758 4.50494C5.64683 5.46739 7.49798 7.06531 7.99999 7.06531C8.502 7.06531 10.3783 5.47356 10.9179 4.50494C11.0622 4.24581 11.0183 4.06073 10.7799 4.06073Z"/>
</svg>
