<svg width="24" height="24" viewBox="0 0 24 24" xmlns="http://www.w3.org/2000/svg">
<path d="M10.939 17.6377C12.3252 17.6377 13.6035 17.1895 14.6494 16.4424L18.584 20.377C18.7666 20.5596 19.0073 20.6509 19.2646 20.6509C19.8042 20.6509 20.186 20.2358 20.186 19.7046C20.186 19.4556 20.103 19.2148 19.9204 19.0405L16.0107 15.1226C16.8325 14.0435 17.3223 12.707 17.3223 11.2544C17.3223 7.74316 14.4502 4.87109 10.939 4.87109C7.43604 4.87109 4.55566 7.73486 4.55566 11.2544C4.55566 14.7656 7.42773 17.6377 10.939 17.6377ZM10.939 16.2598C8.19971 16.2598 5.93359 13.9937 5.93359 11.2544C5.93359 8.51514 8.19971 6.24902 10.939 6.24902C13.6782 6.24902 15.9443 8.51514 15.9443 11.2544C15.9443 13.9937 13.6782 16.2598 10.939 16.2598Z"/>
</svg>
