<svg width="14" height="13" viewBox="0 0 14 13" xmlns="http://www.w3.org/2000/svg">
<path d="M1.53467 5.49658C1.87109 5.49658 2.1123 5.24268 2.1123 4.90625V4.37305L1.98535 2.15771L3.65479 3.91602L5.60986 5.88379C5.71777 5.99805 5.85742 6.04883 6.00977 6.04883C6.37158 6.04883 6.63818 5.81396 6.63818 5.4585C6.63818 5.28711 6.58105 5.13477 6.4668 5.02051L4.50537 3.06543L2.74707 1.396L4.96875 1.52295H5.49561C5.83203 1.52295 6.09229 1.28809 6.09229 0.945312C6.09229 0.602539 5.83838 0.361328 5.49561 0.361328H1.97266C1.3252 0.361328 0.950684 0.73584 0.950684 1.3833V4.90625C0.950684 5.23633 1.19824 5.49658 1.53467 5.49658ZM8.49805 12.4727H12.021C12.6685 12.4727 13.0493 12.0981 13.0493 11.4507V7.92773C13.0493 7.59766 12.8018 7.3374 12.459 7.3374C12.1289 7.3374 11.8813 7.59131 11.8813 7.92773V8.46094L12.0146 10.6763L10.3389 8.91797L8.39014 6.9502C8.28223 6.83594 8.13623 6.78516 7.98389 6.78516C7.62842 6.78516 7.35547 7.02002 7.35547 7.37549C7.35547 7.54688 7.41895 7.69922 7.5332 7.81348L9.48828 9.76855L11.2529 11.438L9.03125 11.311H8.49805C8.16162 11.311 7.90137 11.5459 7.90137 11.8887C7.90137 12.2314 8.16162 12.4727 8.49805 12.4727Z" />
</svg>
