<svg width="24" height="25" viewBox="0 0 24 25" fill="none" xmlns="http://www.w3.org/2000/svg">
<path d="M10.6368 18.3424C11.0348 18.3424 11.3466 18.1832 11.5655 17.8581L17.7745 8.27934C17.9337 8.04053 18 7.82163 18 7.61599C18 7.07204 17.602 6.68066 17.0448 6.68066C16.66 6.68066 16.4279 6.81333 16.1957 7.18481L10.6103 16.0206L7.75788 12.4253C7.53234 12.1533 7.30017 12.0273 6.96849 12.0273C6.40464 12.0273 6 12.4253 6 12.9759C6 13.2147 6.0796 13.4402 6.28524 13.679L9.71476 17.8913C9.97347 18.2031 10.2587 18.3424 10.6368 18.3424Z" fill="black"/>
</svg>
