<svg width="8" height="12" viewBox="0 0 8 12" xmlns="http://www.w3.org/2000/svg">
<path d="M7.33154 3.43326V1.41096C7.33154 1.10334 7.08089 0.903962 6.77897 0.966625L4.01042 1.57047C3.64583 1.65022 3.45215 1.8439 3.45215 2.16291L3.45784 8.14436C3.48063 8.39501 3.3667 8.55452 3.15023 8.60009L2.29004 8.77668C1.19059 9.00455 0.666504 9.56851 0.666504 10.4059C0.666504 11.2547 1.31592 11.8472 2.23877 11.8472C3.08187 11.8472 4.25537 11.2148 4.25537 9.66536V4.73209C4.25537 4.46435 4.29525 4.41877 4.5402 4.3675L7.01253 3.82063C7.20622 3.78075 7.33154 3.62694 7.33154 3.43326Z" />
</svg>
