<svg width="24" height="24" viewBox="0 0 24 24" fill="none" xmlns="http://www.w3.org/2000/svg">
<path d="M18.043 18.0541C18.2588 18.2128 18.5698 18.1493 18.7412 17.8954C19.8521 16.2894 20.5186 14.2519 20.5186 12.0111C20.5186 9.76406 19.833 7.73916 18.7412 6.12685C18.5698 5.8666 18.2588 5.80947 18.043 5.96816C17.8018 6.1332 17.77 6.43154 17.9414 6.69179C18.9253 8.14541 19.5474 9.97353 19.5474 12.0111C19.5474 14.0424 18.9253 15.8832 17.9414 17.3305C17.77 17.5907 17.8018 17.8891 18.043 18.0541ZM10.3242 17.6161C10.7432 17.6161 11.0415 17.3178 11.0415 16.9052V7.16787C11.0415 6.75527 10.7432 6.41884 10.3115 6.41884C10.0132 6.41884 9.81006 6.5458 9.49268 6.85683L6.78223 9.39589C6.74414 9.43398 6.68701 9.45302 6.62354 9.45302H4.80811C3.94482 9.45302 3.48145 9.9291 3.48145 10.8432V13.2045C3.48145 14.1249 3.94482 14.5946 4.80811 14.5946H6.62354C6.68701 14.5946 6.74414 14.6137 6.78223 14.6518L9.49268 17.2162C9.77832 17.4955 10.0259 17.6161 10.3242 17.6161ZM15.6626 16.372C15.8975 16.5307 16.1895 16.4735 16.3608 16.2323C17.1733 15.1151 17.6494 13.579 17.6494 12.0111C17.6494 10.4433 17.1797 8.89443 16.3608 7.78994C16.1895 7.54873 15.8975 7.4916 15.6626 7.65029C15.4277 7.80898 15.3896 8.10732 15.5737 8.36757C16.2656 9.34511 16.6655 10.6591 16.6655 12.0111C16.6655 13.3632 16.2529 14.6644 15.5737 15.6547C15.396 15.9149 15.4277 16.2133 15.6626 16.372ZM13.3076 14.7152C13.5171 14.8612 13.8154 14.8168 13.9868 14.5692C14.4756 13.9281 14.7676 12.9823 14.7676 12.0111C14.7676 11.0399 14.4756 10.1005 13.9868 9.45302C13.8154 9.20546 13.5171 9.15468 13.3076 9.30703C13.0474 9.48476 13.0093 9.80214 13.2061 10.0624C13.5742 10.5702 13.7837 11.2748 13.7837 12.0111C13.7837 12.7475 13.5679 13.4457 13.2061 13.9599C13.0156 14.2265 13.0474 14.5311 13.3076 14.7152Z" fill="black"/>
</svg>
