<svg width="24" height="24" viewBox="0 0 24 24" xmlns="http://www.w3.org/2000/svg">
<path d="M12 22C17.4706 22 22 17.4608 22 12C22 6.52941 17.4608 2 11.9902 2C6.52941 2 2 6.52941 2 12C2 17.4608 6.53922 22 12 22ZM11.9902 13.6765C10.1078 13.6569 8.62745 12.0882 8.62745 9.98039C8.61765 8 10.1176 6.35294 11.9902 6.35294C13.8725 6.35294 15.3529 8 15.3529 9.98039C15.3529 12.0882 13.8824 13.6961 11.9902 13.6765ZM11.9902 20.5098C9.7451 20.5098 7.47059 19.5882 5.97059 17.9902C7.02941 16.3235 9.33333 15.3431 11.9902 15.3431C14.6275 15.3431 16.951 16.3039 18.0196 17.9902C16.5098 19.5882 14.2451 20.5098 11.9902 20.5098Z" />
</svg>
