<svg width="28" height="28" viewBox="0 0 28 28" fill="none" xmlns="http://www.w3.org/2000/svg">
<path fill-rule="evenodd" clip-rule="evenodd" d="M10.194 21.9701C4.53868 21.549 0 16.7372 0 10.9672C0 4.92537 4.97619 0 11 0C16.7649 0 21.5703 4.51104 21.9727 10.1945C21.335 10.0669 20.6753 10 20 10C14.4772 10 10 14.4772 10 20C10 20.6744 10.0668 21.3331 10.194 21.9701Z" fill="#1ED760"/>
<path fill-rule="evenodd" clip-rule="evenodd" d="M13.905 12.0715C11.1896 11.1369 7.90457 11.0137 5.23806 11.8211C4.12497 12.1495 3.73211 10.442 4.77973 10.1793C8.26461 9.14792 12.4473 9.46639 15.7187 10.9602C15.0731 11.2665 14.4655 11.64 13.905 12.0715ZM11.4949 14.7379C11.764 14.3037 12.0655 13.8917 12.396 13.5052C10.2549 12.991 7.8471 13.0312 5.17259 13.6599C4.38687 13.7912 4.51782 15.1047 5.43449 14.9733C7.645 14.4764 9.67804 14.4022 11.4949 14.7379ZM4.12497 6.5017C2.88092 6.9614 3.60116 8.86588 4.71425 8.47185C8.05354 7.4211 13.9464 7.61812 17.4821 9.71961C18.6607 10.3763 19.7083 8.53752 18.5952 7.94647C14.5357 5.51662 7.98806 5.31961 4.12497 6.5017Z" fill="#111011"/>
</svg>
