<svg width="24" height="24" viewBox="0 0 24 24" xmlns="http://www.w3.org/2000/svg">
<path fill-rule="evenodd" clip-rule="evenodd" d="M13.9244 6.46614C13.5642 5.79051 12.8383 5.33008 11.9992 5.33008C10.8001 5.33008 9.83221 6.27043 9.83221 7.43534V11.343L13.9244 6.46614ZM8.59447 12.8181C8.52629 12.6328 8.47366 12.4403 8.4381 12.2424C8.38031 11.8985 8.08414 11.6459 7.7302 11.6459C7.28958 11.6459 6.94285 12.0248 7.00786 12.4459C7.10326 13.0133 7.29888 13.5476 7.57649 14.0313L8.59447 12.8181ZM9.78959 16.061L10.736 14.9331C11.1292 15.0763 11.5548 15.1546 11.9992 15.1546C13.7834 15.1546 15.2642 13.8915 15.5604 12.2424C15.6182 11.8985 15.9143 11.6459 16.2683 11.6459C16.7089 11.6459 17.0628 12.0248 16.9906 12.4459C16.6367 14.5511 14.903 16.2003 12.7216 16.502V17.9616C12.7216 18.3476 12.3965 18.6634 11.9992 18.6634C11.6019 18.6634 11.2769 18.3476 11.2769 17.9616V16.502C10.7507 16.4292 10.2506 16.278 9.78959 16.061ZM11.7402 13.7363L14.1663 10.8451V11.6459C14.1663 12.8108 13.1983 13.7511 11.9992 13.7511C11.9116 13.7511 11.8251 13.7461 11.7402 13.7363Z" />
<rect x="16.25" y="5.25" width="1" height="16" transform="rotate(40 16.25 5.25)" />
</svg>
