<svg width="16" height="16" viewBox="0 0 16 16" xmlns="http://www.w3.org/2000/svg">
<path fill-rule="evenodd" clip-rule="evenodd" d="M8 0C3.58172 0 0 3.58172 0 8C0 12.4183 3.58172 16 8 16C12.4183 16 16 12.4183 16 8C16 3.58172 12.4183 0 8 0ZM6.02897 4.89534C6.02897 7.8234 7.90316 9.64632 10.854 9.64632C11.5262 9.64632 12.2098 9.50391 12.62 9.3501C12.7738 9.28174 12.8877 9.25325 13.0016 9.25325C13.201 9.25325 13.3662 9.40706 13.3662 9.64062C13.3662 9.73177 13.3434 9.89128 13.2751 10.0565C12.5003 11.9876 10.3983 13.4289 8.0057 13.4289C4.67887 13.4289 2.16667 11.0249 2.16667 7.69238C2.16667 5.32259 3.57943 3.10661 5.70426 2.25212C5.85807 2.18945 6.00619 2.16667 6.09733 2.16667C6.34798 2.16667 6.4904 2.34896 6.4904 2.54834C6.4904 2.64518 6.46191 2.77051 6.38786 2.92432C6.17708 3.38005 6.02897 4.22884 6.02897 4.89534Z"/>
</svg>
