<svg width="28" height="29" viewBox="0 0 28 29" xmlns="http://www.w3.org/2000/svg">
<path d="M14 28.0192C21.5991 28.0192 27.8908 21.7139 27.8908 14.1284C27.8908 6.5293 21.5855 0.237564 13.9864 0.237564C6.40089 0.237564 0.109161 6.5293 0.109161 14.1284C0.109161 21.7139 6.41451 28.0192 14 28.0192ZM14 25.7041C7.57208 25.7041 2.43792 20.5563 2.43792 14.1284C2.43792 7.70049 7.55846 2.5527 13.9864 2.5527C20.4143 2.5527 25.5621 7.70049 25.5757 14.1284C25.5893 20.5563 20.4279 25.7041 14 25.7041ZM8.81136 15.2724H12.8424V19.3307C12.8424 20.0116 13.3055 20.4746 13.9728 20.4746C14.6537 20.4746 15.1303 20.0116 15.1303 19.3307V15.2724H19.1886C19.8696 15.2724 20.3326 14.8093 20.3326 14.142C20.3326 13.4611 19.8696 12.9845 19.1886 12.9845H15.1303V8.95338C15.1303 8.24522 14.6537 7.7822 13.9728 7.7822C13.3055 7.7822 12.8424 8.25884 12.8424 8.95338V12.9845H8.81136C8.1032 12.9845 7.64017 13.4611 7.64017 14.142C7.64017 14.8093 8.11682 15.2724 8.81136 15.2724Z" />
</svg>
