<svg width="8" height="10" viewBox="0 0 8 10" xmlns="http://www.w3.org/2000/svg">
<path d="M1.29883 9.5625H2.58203C3.08594 9.5625 3.34961 9.29883 3.34961 8.79492V1.20703C3.34961 0.685547 3.08594 0.439453 2.58203 0.439453H1.29883C0.794922 0.439453 0.53125 0.703125 0.53125 1.20703V8.79492C0.53125 9.29883 0.794922 9.5625 1.29883 9.5625ZM5.41797 9.5625H6.69531C7.20508 9.5625 7.46289 9.29883 7.46289 8.79492V1.20703C7.46289 0.685547 7.20508 0.439453 6.69531 0.439453H5.41797C4.9082 0.439453 4.65039 0.703125 4.65039 1.20703V8.79492C4.65039 9.29883 4.9082 9.5625 5.41797 9.5625Z"/>
</svg>
