<svg width="14" height="9" viewBox="0 0 14 9" xmlns="http://www.w3.org/2000/svg">
<path d="M9.44434 4.42578C10.4941 4.42578 11.3975 3.48828 11.3975 2.26758C11.3975 1.06152 10.4893 0.167969 9.44434 0.167969C8.4043 0.167969 7.49121 1.08105 7.49609 2.27734C7.49609 3.48828 8.39941 4.42578 9.44434 4.42578ZM3.82422 4.53809C4.7373 4.53809 5.52344 3.71777 5.52344 2.6582C5.52344 1.6084 4.73242 0.832031 3.82422 0.832031C2.9209 0.832031 2.12012 1.62793 2.125 2.66797C2.125 3.71777 2.91602 4.53809 3.82422 4.53809ZM1.10449 8.94727H4.81055C4.30273 8.20996 4.92285 6.72559 5.97754 5.91504C5.43066 5.55371 4.73242 5.28516 3.82422 5.28516C1.62207 5.28516 0.245117 6.91113 0.245117 8.26367C0.245117 8.70312 0.484375 8.94727 1.10449 8.94727ZM6.37793 8.94727H12.5107C13.2773 8.94727 13.5508 8.72754 13.5508 8.29785C13.5508 7.03809 11.9736 5.2998 9.44434 5.2998C6.91016 5.2998 5.33301 7.03809 5.33301 8.29785C5.33301 8.72754 5.60645 8.94727 6.37793 8.94727Z" />
</svg>
