<svg width="24" height="24" viewBox="0 0 24 24" fill="none" xmlns="http://www.w3.org/2000/svg">
<path d="M3.00002 18.347C3.00002 19.0123 3.53182 19.5511 4.18704 19.5511H4.2041C3.53885 19.5511 3.00002 19.0123 3.00002 18.347Z" fill="#FBBC05"/>
<path d="M13.2007 9.01533V12.159L17.3477 8.7404V5.70409C17.3477 5.03883 16.8159 4.5 16.1607 4.5H7.1762L7.16817 9.01533H13.2007Z" fill="#FBBC05"/>
<path d="M13.2007 15.3037H7.15814L7.15111 19.5511H16.1607C16.8169 19.5511 17.3477 19.0123 17.3477 18.347V15.6057L13.2007 12.16V15.3037Z" fill="#34A853"/>
<path d="M7.17618 4.5L3 9.01533H7.16916L7.17618 4.5Z" fill="#EA4335"/>
<path d="M3.00002 15.3037V18.347C3.00002 19.0123 3.53885 19.5511 4.2041 19.5511H7.15111L7.15814 15.3037H3.00002Z" fill="#1967D2"/>
<path d="M7.16917 9.01535H3.00002V15.3037H7.15814L7.16917 9.01535Z" fill="#4285F4"/>
<path d="M20.9941 17.2764V6.94132C20.7603 5.56966 19.2883 7.142 19.2883 7.142L17.3487 8.74043V15.6047L20.1252 17.9116C21.1276 18.046 20.9941 17.2764 20.9941 17.2764Z" fill="#34A853"/>
<path d="M13.2007 12.159L17.3487 15.6057V8.74139L13.2007 12.159Z" fill="#188038"/>
</svg>
