<svg width="24" height="24" viewBox="0 0 24 24" fill="none" xmlns="http://www.w3.org/2000/svg">
<path fill-rule="evenodd" clip-rule="evenodd" d="M12 7.00067C11.5858 7.00067 11.25 7.33646 11.25 7.75067V11.2507H7.75C7.33579 11.2507 7 11.5865 7 12.0007C7 12.4149 7.33579 12.7507 7.75 12.7507H11.25V16.2507C11.25 16.6649 11.5858 17.0007 12 17.0007C12.4142 17.0007 12.75 16.6649 12.75 16.2507V12.7507H16.25C16.6642 12.7507 17 12.4149 17 12.0007C17 11.5865 16.6642 11.2507 16.25 11.2507H12.75V7.75067C12.75 7.33646 12.4142 7.00067 12 7.00067Z" fill="black"/>
</svg>
