<svg width="14" height="15" viewBox="0 0 14 15" xmlns="http://www.w3.org/2000/svg">
<path d="M13.6309 3.91992V1.49316C13.6309 1.13086 13.3301 0.891602 12.9746 0.966797L9.64551 1.69141C9.21484 1.78027 8.98242 2.01953 8.98242 2.39551L8.98926 9.58008C9.0166 9.87402 8.87988 10.0723 8.61328 10.127L7.58105 10.3389C6.26855 10.6123 5.64648 11.2822 5.64648 12.2939C5.64648 13.3057 6.41895 14.0166 7.51953 14.0166C8.53125 14.0166 9.93945 13.2646 9.93945 11.3984V5.47852C9.93945 5.15723 9.9873 5.0957 10.2812 5.03418L13.248 4.38477C13.4805 4.33691 13.6309 4.15234 13.6309 3.91992ZM0.820312 4.2207H6.57617C6.82227 4.2207 7.02734 4.01562 7.02734 3.76953C7.02734 3.52344 6.82227 3.31836 6.57617 3.31836H0.820312C0.567383 3.31836 0.362305 3.52344 0.362305 3.76953C0.362305 4.01562 0.567383 4.2207 0.820312 4.2207ZM0.820312 6.52441H6.57617C6.8291 6.52441 7.02734 6.31934 7.02734 6.06641C7.02734 5.82031 6.82227 5.62207 6.57617 5.62207H0.820312C0.567383 5.62207 0.362305 5.82031 0.362305 6.06641C0.362305 6.31934 0.560547 6.52441 0.820312 6.52441ZM0.820312 8.82812H6.57617C6.8291 8.82812 7.02734 8.62988 7.02734 8.37695C7.02734 8.12402 6.82227 7.92578 6.57617 7.92578H0.820312C0.567383 7.92578 0.362305 8.12402 0.362305 8.37695C0.362305 8.62988 0.560547 8.82812 0.820312 8.82812Z" />
</svg>
